<!DOCTYPE svg PUBLIC "-//W3C//DTD SVG 1.1//EN" "http://www.w3.org/Graphics/SVG/1.1/DTD/svg11.dtd">
<svg version="1.1" xmlns="http://www.w3.org/2000/svg" xmlns:xlink="http://www.w3.org/1999/xlink" x="0px" y="0px"
	 width="512px" height="512px" viewBox="0 0 512 512" enable-background="new 0 0 512 512" xml:space="preserve">
  <path fill="#ff7700" id="brightness-7-icon" d="M255.5,156.001c-55.141,0-100,44.859-100,99.999c0,55.141,44.859,100,100,100s100-44.859,100-100
  	C355.5,200.86,310.641,156.001,255.5,156.001z M429.169,275.34l32.83-19.34l-32.83-19.34c-17.527-10.325-23.547-32.791-13.53-50.496
  	l18.762-33.163l-38.103-0.334c-20.341-0.179-36.786-16.624-36.965-36.965L358.999,77.6l-33.163,18.762
  	c-17.705,10.017-40.171,3.997-50.496-13.53L256,50.001l-19.34,32.83c-10.325,17.527-32.791,23.547-50.496,13.53L153.001,77.6
  	l-0.334,38.103c-0.179,20.341-16.624,36.786-36.965,36.965L77.6,153.001l18.762,33.163c10.017,17.705,3.997,40.171-13.53,50.496
  	L50.001,256l32.83,19.34c17.527,10.325,23.547,32.791,13.53,50.496L77.6,358.999l38.103,0.334
  	c20.341,0.179,36.786,16.624,36.965,36.965l0.334,38.103l33.163-18.762c17.705-10.017,40.171-3.997,50.496,13.53l19.34,32.83
  	l19.34-32.83c10.325-17.527,32.791-23.547,50.496-13.53l33.163,18.762l0.334-38.103c0.179-20.341,16.624-36.786,36.965-36.965
  	l38.103-0.334l-18.762-33.163C405.622,308.131,411.642,285.665,429.169,275.34z M255.5,386c-71.683,0-130-58.317-130-130
  	c0-71.682,58.317-129.999,130-129.999s130,58.317,130,129.999C385.5,327.683,327.183,386,255.5,386z"/>
</svg>
